<?xml version="1.0" encoding="utf-8"?>
<!-- Generator: Adobe Illustrator 18.1.1, SVG Export Plug-In . SVG Version: 6.00 Build 0)  -->
<svg version="1.1" id="Layer_1" xmlns="http://www.w3.org/2000/svg" xmlns:xlink="http://www.w3.org/1999/xlink" x="0px" y="0px"
	 viewBox="0 0 508.356 116.741" style="enable-background:new 0 0 508.356 116.741;" xml:space="preserve">
<g>
	<g>
		<g>
			<path style="fill:#7D6AAF;" d="M120.316,60.158C120.864,26.938,93.383,0,60.158,0C26.934,0,0,26.934,0,60.158
				c0,14.857,5.389,28.454,14.315,38.949c6.444-2.15,11.227-3.804,11.227-3.973c0-1.095,0-2.044,0-69.962h54.97l0.04,91.569
				C104.317,107.792,119.88,86.637,120.316,60.158z"/>
		</g>
		<polygon style="fill:#7D6AAF;" points="35.362,35.166 35.362,92.119 58.266,81.295 58.266,39.779 		"/>
	</g>
	<g>
		<g>
			<path style="fill:#395460;" d="M120.316,60.158C120.864,26.938,93.383,0,60.158,0C26.934,0,0,26.934,0,60.158
				c0,14.857,5.389,28.454,14.315,38.949c6.444-2.15,11.227-3.804,11.227-3.973c0-1.095,0-2.044,0-69.962h54.97l0.04,91.569
				C104.317,107.792,119.88,86.637,120.316,60.158z"/>
		</g>
		<polygon style="fill:#395460;" points="35.362,35.166 35.362,92.119 58.266,81.295 58.266,39.779 		"/>
	</g>
	<g>
		<path style="fill:#199E87;" d="M171.041,92.06c-3.917,0-7.492-0.697-10.725-2.091c-3.234-1.394-6.008-3.396-8.321-6.008
			c-2.315-2.61-4.11-5.785-5.385-9.523c-1.277-3.738-1.913-7.98-1.913-12.727c0-4.746,0.637-8.974,1.913-12.684
			c1.275-3.707,3.071-6.822,5.385-9.345c2.314-2.521,5.087-4.449,8.321-5.784c3.233-1.335,6.808-2.003,10.725-2.003
			c3.916,0,7.489,0.668,10.725,2.003c3.233,1.335,6.008,3.279,8.321,5.83c2.315,2.551,4.109,5.681,5.385,9.389
			c1.274,3.71,1.913,7.908,1.913,12.595c0,4.747-0.639,8.989-1.913,12.727c-1.277,3.738-3.071,6.913-5.385,9.523
			c-2.314,2.612-5.088,4.614-8.321,6.008C178.53,91.362,174.957,92.06,171.041,92.06z M171.041,80.757
			c3.974,0,7.12-1.705,9.434-5.117c2.314-3.412,3.471-8.055,3.471-13.929c0-5.815-1.157-10.354-3.471-13.618
			c-2.315-3.263-5.46-4.895-9.434-4.895c-3.976,0-7.121,1.632-9.434,4.895c-2.315,3.264-3.471,7.803-3.471,13.618
			c0,5.874,1.156,10.517,3.471,13.929C163.92,79.052,167.065,80.757,171.041,80.757z"/>
		<path style="fill:#199E87;" d="M205.039,46.847h10.68l0.889,5.608h0.357c1.898-1.781,3.974-3.339,6.23-4.673
			c2.254-1.335,4.895-2.002,7.921-2.002c4.806,0,8.291,1.573,10.457,4.716c2.166,3.145,3.25,7.508,3.25,13.084v27.412h-13.084V65.27
			c0-3.204-0.431-5.399-1.291-6.586c-0.86-1.187-2.24-1.781-4.138-1.781c-1.663,0-3.086,0.372-4.272,1.113
			c-1.188,0.743-2.493,1.796-3.917,3.161v29.814h-13.083V46.847z"/>
		<path style="fill:#199E87;" d="M251.141,68.919c0-3.56,0.592-6.778,1.78-9.656c1.186-2.878,2.744-5.309,4.672-7.299
			c1.928-1.987,4.139-3.515,6.631-4.584c2.492-1.067,5.072-1.601,7.743-1.601c3.143,0,5.887,0.534,8.232,1.601
			c2.343,1.068,4.302,2.552,5.874,4.451c1.572,1.898,2.743,4.138,3.515,6.718c0.77,2.581,1.156,5.385,1.156,8.411
			c0,1.188-0.059,2.27-0.178,3.248c-0.119,0.979-0.236,1.735-0.356,2.269H263.78c0.592,3.383,1.913,5.831,3.959,7.343
			c2.048,1.514,4.554,2.27,7.522,2.27c3.143,0,6.319-0.979,9.523-2.937l4.361,7.921c-2.256,1.543-4.763,2.759-7.522,3.649
			c-2.757,0.891-5.473,1.335-8.143,1.335c-3.144,0-6.082-0.52-8.81-1.558c-2.729-1.038-5.104-2.55-7.12-4.539
			c-2.017-1.987-3.592-4.406-4.718-7.254C251.704,75.862,251.141,72.599,251.141,68.919z M279.621,64.381
			c0-2.551-0.564-4.629-1.69-6.23c-1.128-1.603-3.026-2.404-5.696-2.404c-2.077,0-3.901,0.698-5.474,2.091
			c-1.573,1.395-2.597,3.575-3.07,6.543H279.621z"/>
		<path style="fill:#199E87;" d="M330.086,90.991l-11.126-20.915h-7.208v20.915h-13.083V32.962h20.914
			c3.085,0,5.978,0.298,8.679,0.89c2.699,0.593,5.057,1.588,7.074,2.981c2.017,1.395,3.618,3.25,4.807,5.563
			c1.187,2.314,1.779,5.193,1.779,8.634c0,4.272-0.933,7.788-2.803,10.546c-1.87,2.759-4.375,4.822-7.521,6.187l13.172,23.229
			H330.086z M311.751,59.663h6.764c3.44,0,6.065-0.726,7.877-2.18c1.809-1.453,2.714-3.605,2.714-6.452
			c0-2.848-0.905-4.835-2.714-5.963c-1.811-1.127-4.436-1.691-7.877-1.691h-6.764V59.663z"/>
		<path style="fill:#199E87;" d="M346.284,68.919c0-3.678,0.592-6.956,1.779-9.834c1.187-2.878,2.775-5.296,4.764-7.253
			c1.987-1.959,4.284-3.457,6.896-4.495c2.612-1.038,5.31-1.558,8.1-1.558c2.787,0,5.473,0.52,8.054,1.558
			c2.581,1.038,4.863,2.536,6.853,4.495c1.987,1.957,3.575,4.375,4.762,7.253c1.187,2.879,1.781,6.156,1.781,9.834
			c0,3.68-0.594,6.958-1.781,9.835c-1.187,2.879-2.774,5.295-4.762,7.254c-1.989,1.957-4.271,3.456-6.853,4.494
			c-2.581,1.038-5.267,1.558-8.054,1.558c-2.79,0-5.488-0.52-8.1-1.558c-2.612-1.038-4.909-2.537-6.896-4.494
			c-1.989-1.959-3.577-4.375-4.764-7.254C346.876,75.877,346.284,72.599,346.284,68.919z M359.722,68.919
			c0,3.858,0.668,6.913,2.002,9.167c1.336,2.256,3.367,3.382,6.098,3.382c2.67,0,4.686-1.126,6.052-3.382
			c1.364-2.254,2.046-5.309,2.046-9.167c0-3.856-0.681-6.911-2.046-9.167c-1.367-2.254-3.382-3.382-6.052-3.382
			c-2.731,0-4.762,1.128-6.098,3.382C360.39,62.008,359.722,65.063,359.722,68.919z"/>
		<path style="fill:#199E87;" d="M393.454,68.919c0-3.678,0.592-6.956,1.779-9.834c1.187-2.878,2.775-5.296,4.764-7.253
			c1.987-1.959,4.284-3.457,6.896-4.495c2.612-1.038,5.31-1.558,8.1-1.558c2.787,0,5.473,0.52,8.054,1.558
			c2.581,1.038,4.863,2.536,6.853,4.495c1.987,1.957,3.575,4.375,4.762,7.253c1.187,2.879,1.781,6.156,1.781,9.834
			c0,3.68-0.594,6.958-1.781,9.835c-1.187,2.879-2.774,5.295-4.762,7.254c-1.989,1.957-4.271,3.456-6.853,4.494
			c-2.581,1.038-5.267,1.558-8.054,1.558c-2.79,0-5.488-0.52-8.1-1.558c-2.612-1.038-4.909-2.537-6.896-4.494
			c-1.989-1.959-3.577-4.375-4.764-7.254C394.046,75.877,393.454,72.599,393.454,68.919z M406.893,68.919
			c0,3.858,0.668,6.913,2.002,9.167c1.336,2.256,3.367,3.382,6.098,3.382c2.67,0,4.686-1.126,6.052-3.382
			c1.364-2.254,2.046-5.309,2.046-9.167c0-3.856-0.681-6.911-2.046-9.167c-1.367-2.254-3.382-3.382-6.052-3.382
			c-2.731,0-4.762,1.128-6.098,3.382C407.561,62.008,406.893,65.063,406.893,68.919z"/>
		<path style="fill:#199E87;" d="M443.204,46.847h10.681l0.889,5.696h0.356c1.84-1.838,3.796-3.428,5.874-4.762
			c2.076-1.335,4.569-2.002,7.477-2.002c3.143,0,5.679,0.638,7.61,1.913c1.926,1.275,3.456,3.101,4.584,5.473
			c1.957-2.016,4.017-3.752,6.185-5.206c2.165-1.453,4.731-2.18,7.699-2.18c4.746,0,8.232,1.588,10.458,4.762
			c2.226,3.174,3.338,7.521,3.338,13.038v27.412h-13.085V65.27c0-3.204-0.43-5.399-1.291-6.586
			c-0.859-1.187-2.239-1.781-4.139-1.781c-2.195,0-4.716,1.425-7.564,4.273v29.814h-13.083V65.27c0-3.204-0.432-5.399-1.291-6.586
			c-0.861-1.187-2.241-1.781-4.139-1.781c-2.256,0-4.749,1.425-7.475,4.273v29.814h-13.085V46.847z"/>
	</g>
</g>
</svg>
